<svg version="1.1" xmlns="http://www.w3.org/2000/svg" xmlns:xlink="http://www.w3.org/1999/xlink" width="500" height="500"><defs><linearGradient x1="50" y1="208.54793" x2="50" y2="291.45207" gradientUnits="userSpaceOnUse" id="color-1"><stop offset="0" stop-color="#404040"></stop><stop offset="1" stop-color="#4b4b4a"></stop></linearGradient></defs><g data-paper-data="{&quot;description&quot;:&quot;Logo for MATCHPRO\n=================\n\nThis logo was generated by MarkMaker at http://emblemmatic.org/markmaker/ and may be composed of elements designed by others.\n\nThe font is Shadows Into Light designed by Kimberly Geswein and released under the OFL license via Google Fonts: https://www.google.com/fonts/specimen/Shadows%20Into%20Light. The font includes this copyright statement: Copyright (c) 2010, Kimberly Geswein (kimberlygeswein.com kimberlygeswein@gmail.com)\n\nMarkMaker uses semantic data from the Princeton University WordNet database http://wordnet.princeton.edu and font descriptions from Google Fonts https://www.google.com/fonts.&quot;}" fill="url(#color-1)" fill-rule="nonzero" stroke="none" stroke-width="1" stroke-linecap="butt" stroke-linejoin="miter" stroke-miterlimit="10" stroke-dasharray="" stroke-dashoffset="0" font-family="none" font-weight="none" font-size="none" text-anchor="none" style="mix-blend-mode: normal"><g data-paper-data="{&quot;elementType&quot;:&quot;logo&quot;}"><g data-paper-data="{&quot;elementType&quot;:&quot;text&quot;}"><g data-paper-data="{&quot;baseline&quot;:80.07238051470588,&quot;elementType&quot;:&quot;row&quot;}"><g data-paper-data="{&quot;baselineProportion&quot;:0.9820346625334648,&quot;fontSize&quot;:100,&quot;baseline&quot;:80.07238051470588,&quot;elementType&quot;:&quot;word&quot;}"><path d="M100.85062,223.93257c-0.26478,-0.13239 -0.64541,0.61231 -1.14187,2.2341c-0.49647,1.62179 -1.14187,3.70695 -1.93622,6.25548c-0.79435,2.54853 -1.63834,5.42804 -2.53198,8.63852c-0.89364,3.21049 -1.87003,6.40442 -2.92915,9.58181c-1.05913,3.17739 -2.11826,6.13964 -3.17739,8.88676c-1.05913,2.74712 -2.11826,4.91502 -3.17739,6.50372c-1.05913,1.58869 -2.05206,2.46579 -2.9788,2.63127c-0.92674,0.16549 -1.75418,-0.7778 -2.48233,-2.82986c-0.52956,-0.92674 -1.27427,-2.39959 -2.2341,-4.41856c-0.95984,-2.01897 -2.06861,-4.28616 -3.32633,-6.8016c-1.25772,-2.51543 -2.58163,-5.16326 -3.97174,-7.94347c-1.39011,-2.78021 -2.69747,-5.41149 -3.92209,-7.89382c-1.22462,-2.48233 -2.34994,-4.71644 -3.37597,-6.7023c-1.02603,-1.98587 -1.77073,-3.44217 -2.2341,-4.36891c-0.79435,-1.4563 -1.50595,-2.63127 -2.13481,-3.52492c-0.62886,-0.89364 -1.60524,-1.34046 -2.92915,-1.34046c0,4.63369 0.26478,9.73075 0.79435,15.29118c0.52956,5.56043 1.10878,11.18705 1.73763,16.87987c0.62886,5.69282 1.20807,11.3029 1.73763,16.83023c0.52956,5.52733 0.79435,10.64094 0.79435,15.34083c0.26478,0.59576 0.18204,1.15842 -0.24823,1.68799c-0.43027,0.52956 -1.02603,0.92674 -1.78728,1.19152c-0.76125,0.26478 -1.58869,0.28133 -2.48233,0.04965c-0.89364,-0.23168 -1.63834,-0.7778 -2.2341,-1.63834c-0.59576,-5.89141 -0.91019,-11.89866 -0.94329,-18.02175c-0.0331,-6.12309 -0.08274,-12.26273 -0.14894,-18.41892c-0.0662,-6.15619 -0.33098,-12.32893 -0.79435,-18.51822c-0.46337,-6.18929 -1.39011,-12.36203 -2.78021,-18.51822c-0.0662,-1.19152 0.13239,-1.93622 0.59576,-2.2341c0.46337,-0.29788 1.05913,-0.44682 1.78728,-0.44682c1.58869,0 3.02845,0.38062 4.31926,1.14187c1.29081,0.76125 2.46579,1.72109 3.52492,2.87951c1.05913,1.15842 2.00242,2.43269 2.82986,3.8228c0.82744,1.39011 1.57215,2.64782 2.2341,3.77315c0.52956,0.86054 1.25772,2.21755 2.18445,4.07103l3.17739,6.45407c1.19152,2.38304 2.43269,4.88192 3.7235,7.49665c1.29081,2.61473 2.53198,5.09706 3.7235,7.447c1.19152,2.34994 2.28375,4.4351 3.27668,6.25548c0.99293,1.82038 1.75418,3.12774 2.28375,3.92209c0.26478,0 0.49647,-0.09929 0.69505,-0.29788c0.19859,-0.19859 0.47992,-0.76125 0.84399,-1.68799c0.36408,-0.92674 0.86054,-2.34994 1.4894,-4.26962c0.62886,-1.91967 1.50595,-4.5675 2.63127,-7.94347c1.12532,-3.37597 2.51543,-7.64559 4.17032,-12.80885c1.65489,-5.16326 3.67386,-11.45184 6.0569,-18.86574c0.13239,-0.33098 0.56266,-0.62886 1.29081,-0.89364c0.72815,-0.26478 1.39011,-0.39717 1.98587,-0.39717c0.59576,0 1.00948,0.19859 1.24117,0.59576c0.23168,0.39717 0.41372,1.05913 0.54611,1.98587c0.59576,5.62662 1.07568,11.50148 1.43975,17.62458c0.36408,6.12309 0.84399,12.31238 1.43975,18.56786c0.59576,6.25548 1.34046,12.46132 2.2341,18.61751c0.89364,6.15619 2.13481,12.0145 3.7235,17.57493l-6.85124,2.68092z" data-paper-data="{&quot;elementType&quot;:&quot;letter&quot;,&quot;baseline&quot;:76.3671875,&quot;baselineProportion&quot;:0.9960091704169146,&quot;fontSize&quot;:100}"></path><path d="M119.02131,287.38104c0.19859,-0.92674 0.36408,-2.11826 0.49647,-3.57456c0.13239,-1.4563 0.31443,-3.37597 0.54611,-5.75902c0.23168,-2.38304 0.49647,-5.32874 0.79435,-8.83711c0.29788,-3.50837 0.7116,-7.77798 1.24117,-12.80885c0.52956,-5.03086 1.14187,-10.93882 1.83693,-17.72387c0.69505,-6.78505 1.60524,-14.67887 2.73057,-23.68147c0.0662,-0.66196 0.38062,-1.05913 0.94329,-1.19152c0.56266,-0.13239 1.07568,-0.19859 1.53905,-0.19859c0.72815,0 1.32391,0.26478 1.78728,0.79435c0.46337,0.52956 0.87709,1.12532 1.24117,1.78728c0.36408,0.66196 0.7116,1.35701 1.04258,2.08516c0.33098,0.72815 0.69505,1.32391 1.09223,1.78728c0.66196,1.5225 1.34046,3.27668 2.03551,5.26255c0.69505,1.98587 1.43975,4.10413 2.2341,6.35478c0.79435,2.25065 1.58869,4.51785 2.38304,6.8016c0.79435,2.28375 1.58869,4.5013 2.38304,6.65266c0.79435,2.15136 1.53905,4.13722 2.2341,5.9576c0.69505,1.82038 1.34046,3.32633 1.93622,4.51785c0.72815,-0.0662 1.75418,-0.34753 3.07809,-0.84399c1.32391,-0.49647 2.74712,-0.97638 4.26962,-1.43975c1.5225,-0.46337 3.0119,-0.82744 4.4682,-1.09223c1.4563,-0.26478 2.68092,-0.28133 3.67386,-0.04965c0.99293,0.23168 1.63834,0.8109 1.93622,1.73763c0.29788,0.92674 0.04965,2.38304 -0.7447,4.36891c-0.46337,0 -0.89364,-0.08274 -1.29081,-0.24823c-0.39717,-0.16549 -0.79435,-0.33098 -1.19152,-0.49647c-0.39717,-0.16549 -0.8109,-0.33098 -1.24117,-0.49647c-0.43027,-0.16549 -0.91019,-0.24823 -1.43975,-0.24823c-0.33098,0 -1.07568,0.18204 -2.2341,0.54611c-1.15842,0.36408 -2.39959,0.76125 -3.7235,1.19152c-1.32391,0.43027 -2.48233,0.86054 -3.47527,1.29081c-0.99293,0.43027 -1.4894,0.7447 -1.4894,0.94329l6.85124,26.90851l-2.58163,3.77315c-1.12532,-1.91967 -2.06861,-4.12068 -2.82986,-6.60301c-0.76125,-2.48233 -1.47285,-4.96467 -2.13481,-7.447c-0.66196,-2.48233 -1.34046,-4.79918 -2.03551,-6.95054c-0.69505,-2.15136 -1.57215,-3.95519 -2.63127,-5.41149c-1.39011,0.66196 -3.045,1.22462 -4.96467,1.68799c-1.91967,0.46337 -3.77315,1.04258 -5.56043,1.73763c-1.78728,0.69505 -3.32633,1.62179 -4.61714,2.78021c-1.29081,1.15842 -2.06861,2.73057 -2.33339,4.71644c-0.13239,0.79435 -0.24823,1.85348 -0.34753,3.17739c-0.09929,1.32391 -0.21514,2.58163 -0.34753,3.77315c-0.19859,1.4563 -0.36408,2.9457 -0.49647,4.4682h-5.06396M130.44005,228.89724l-0.19859,1.68799c-0.0662,1.12532 -0.16549,2.43269 -0.29788,3.92209c-0.13239,1.4894 -0.28133,3.0119 -0.44682,4.5675c-0.16549,1.5556 -0.28133,2.86296 -0.34753,3.92209c-0.33098,3.70695 -0.6785,7.36426 -1.04258,10.97192c-0.36408,3.60766 -0.54611,7.29806 -0.54611,11.07121c1.25772,0 2.59818,-0.16549 4.02138,-0.49647c1.42321,-0.33098 2.79676,-0.7778 4.12068,-1.34046c1.32391,-0.56266 2.53198,-1.25772 3.62421,-2.08516c1.09223,-0.82744 1.93622,-1.77073 2.53198,-2.82986c-0.52956,-2.31685 -1.10878,-4.71644 -1.73763,-7.19877c-0.62886,-2.48233 -1.30736,-4.99777 -2.03551,-7.5463c-0.72815,-2.54853 -1.5225,-5.04741 -2.38304,-7.49665c-0.86054,-2.44924 -1.78728,-4.83228 -2.78021,-7.14912c-0.0662,-0.0662 -0.29788,-0.21514 -0.69505,-0.44682c-0.39717,-0.23168 -0.99293,-0.08274 -1.78728,0.44682z" data-paper-data="{&quot;elementType&quot;:&quot;letter&quot;,&quot;baseline&quot;:75.09765625,&quot;baselineProportion&quot;:0.9808673469387755,&quot;fontSize&quot;:100}"></path><path d="M186.04434,227.70572c-2.11826,0 -4.25307,0.19859 -6.40442,0.59576c-2.15136,0.39717 -4.28616,0.84399 -6.40442,1.34046c-2.11826,0.49647 -4.23652,0.94329 -6.35478,1.34046c-2.11826,0.39717 -4.26962,0.59576 -6.45407,0.59576c-0.66196,0 -1.34046,-0.08274 -2.03551,-0.24823c-0.69505,-0.16549 -1.04258,-0.7447 -1.04258,-1.73763c0,-0.66196 0.28133,-1.34046 0.84399,-2.03551c0.56266,-0.69505 1.17497,-1.07568 1.83693,-1.14187l26.61063,-3.87244c0.0662,-0.26478 0.16549,-0.6785 0.29788,-1.24117c0.13239,-0.56266 0.31443,-1.12532 0.54611,-1.68799c0.23168,-0.56266 0.54611,-1.05913 0.94329,-1.4894c0.39717,-0.43027 0.86054,-0.64541 1.39011,-0.64541c0.79435,0 1.42321,0.19859 1.88657,0.59576c0.46337,0.39717 0.86054,0.84399 1.19152,1.34046c0.33098,0.49647 0.62886,0.94329 0.89364,1.34046c0.26478,0.39717 0.59576,0.59576 0.99293,0.59576h0.79435c0.66196,-0.0662 1.72109,-0.18204 3.17739,-0.34753c1.4563,-0.16549 3.12774,-0.34753 5.01432,-0.54611c1.88657,-0.19859 3.88899,-0.41372 6.00725,-0.64541c2.11826,-0.23168 4.13722,-0.43027 6.0569,-0.59576c1.91967,-0.16549 3.60766,-0.33098 5.06396,-0.49647c1.4563,-0.16549 2.51543,-0.31443 3.17739,-0.44682c0.19859,0 0.6785,-0.01655 1.43975,-0.04965c0.76125,-0.0331 1.30736,-0.04965 1.63834,-0.04965c0,1.25772 -0.6785,2.3003 -2.03551,3.12774c-1.35701,0.82744 -3.07809,1.5225 -5.16326,2.08516c-2.08516,0.56266 -4.40201,0.99293 -6.95054,1.29081c-2.54853,0.29788 -5.03086,0.54611 -7.447,0.7447c-2.41614,0.19859 -4.63369,0.36408 -6.65266,0.49647c-2.01897,0.13239 -3.55801,0.29788 -4.61714,0.49647c-0.26478,4.69989 -0.14894,9.59836 0.34753,14.69542c0.49647,5.09706 1.12532,10.22722 1.88657,15.39047c0.76125,5.16326 1.47285,10.29341 2.13481,15.39047c0.66196,5.09706 0.99293,9.96244 0.99293,14.59613c0.26478,0.92674 0.38062,1.65489 0.34753,2.18445c-0.0331,0.52956 -0.21514,0.89364 -0.54611,1.09223c-0.33098,0.19859 -0.82744,0.29788 -1.4894,0.29788c-0.66196,0 -1.4563,-0.0331 -2.38304,-0.09929c-0.66196,-2.38304 -1.24117,-5.1798 -1.73763,-8.39029c-0.49647,-3.21049 -0.94329,-6.65266 -1.34046,-10.32651c-0.39717,-3.67386 -0.7778,-7.46355 -1.14187,-11.36909c-0.36408,-3.90554 -0.7116,-7.77798 -1.04258,-11.61733c-0.33098,-3.83934 -0.69505,-7.5132 -1.09223,-11.02157c-0.39717,-3.50837 -0.86054,-6.68575 -1.39011,-9.53216z" data-paper-data="{&quot;elementType&quot;:&quot;letter&quot;,&quot;baseline&quot;:71.2890625,&quot;baselineProportion&quot;:0.9986320109439124,&quot;fontSize&quot;:100}"></path><path d="M219.20833,272.18915c0,-2.11826 0.21514,-4.99777 0.64541,-8.63852c0.43027,-3.64076 1.09223,-7.5463 1.98587,-11.71662c0.89364,-4.17032 2.00242,-8.39029 3.32633,-12.65991c1.32391,-4.26962 2.89606,-8.12551 4.71644,-11.56768c1.82038,-3.44217 3.90554,-6.25548 6.25548,-8.43994c2.34994,-2.18445 4.94812,-3.27668 7.79453,-3.27668c1.65489,0 3.06155,0.29788 4.21997,0.89364c1.15842,0.59576 2.11826,1.40666 2.87951,2.43269c0.76125,1.02603 1.32391,2.18445 1.68799,3.47527c0.36408,1.29081 0.54611,2.69747 0.54611,4.21997c-1.19152,0 -2.15136,-0.31443 -2.87951,-0.94329c-0.72815,-0.62886 -1.39011,-1.30736 -1.98587,-2.03551c-0.59576,-0.72815 -1.20807,-1.40666 -1.83693,-2.03551c-0.62886,-0.62886 -1.47285,-0.94329 -2.53198,-0.94329c-2.11826,0 -4.07103,1.00948 -5.85831,3.02845c-1.78728,2.01897 -3.40907,4.58404 -4.86538,7.69524c-1.4563,3.11119 -2.74712,6.56991 -3.87244,10.37616c-1.12532,3.80625 -2.06861,7.5132 -2.82986,11.12086c-0.76125,3.60766 -1.34046,6.88434 -1.73763,9.83004c-0.39717,2.9457 -0.59576,5.14671 -0.59576,6.60301c0,1.91967 0.09929,3.7897 0.29788,5.61008c0.19859,1.82038 0.62886,3.45872 1.29081,4.91502c0.66196,1.4563 1.62179,2.63127 2.87951,3.52492c1.25772,0.89364 3.045,1.34046 5.36184,1.34046c2.64782,0 5.2791,-0.86054 7.89382,-2.58163c2.61473,-1.72109 5.04741,-3.8228 7.29806,-6.30513c2.25065,-2.48233 4.20342,-5.13016 5.85831,-7.94347c1.65489,-2.81331 2.84641,-5.2791 3.57456,-7.39736c0.13239,-0.0662 0.43027,-0.11584 0.89364,-0.14894c0.46337,-0.0331 0.76125,-0.04965 0.89364,-0.04965c0.79435,0 1.53905,0.08274 2.2341,0.24823c0.69505,0.16549 1.04258,0.7778 1.04258,1.83693c-0.39717,2.11826 -1.32391,4.35236 -2.78021,6.7023c-1.4563,2.34994 -3.17739,4.65024 -5.16326,6.90089c-1.98587,2.25065 -4.17032,4.33581 -6.55336,6.25548c-2.38304,1.91967 -4.69989,3.54146 -6.95054,4.86538c-2.25065,1.32391 -4.33581,2.2341 -6.25548,2.73057c-1.91967,0.49647 -3.47527,0.44682 -4.66679,-0.14894c-2.18445,0 -4.05448,-0.61231 -5.61008,-1.83693c-1.5556,-1.22462 -2.81331,-2.73057 -3.77315,-4.51785c-0.95984,-1.78728 -1.67144,-3.70695 -2.13481,-5.75902c-0.46337,-2.05206 -0.69505,-3.93864 -0.69505,-5.65972z" data-paper-data="{&quot;elementType&quot;:&quot;letter&quot;,&quot;baseline&quot;:72.8515625,&quot;baselineProportion&quot;:0.9934624697336563,&quot;fontSize&quot;:100}"></path><path d="M298.64304,255.60716c-0.72815,0.52956 -2.00242,1.30736 -3.8228,2.33339c-1.82038,1.02603 -3.7566,2.13481 -5.80866,3.32633c-2.05206,1.19152 -4.00483,2.33339 -5.85831,3.42562c-1.85348,1.09223 -3.14429,1.90312 -3.87244,2.43269c-1.4563,1.12532 -2.44924,2.41614 -2.9788,3.87244c-0.52956,1.4563 -0.79435,3.02845 -0.79435,4.71644c0,1.68799 0.16549,3.44217 0.49647,5.26255c0.33098,1.82038 0.56266,3.65731 0.69505,5.51078c0,0.92674 -0.29788,1.78728 -0.89364,2.58163c-0.59576,0.79435 -1.35701,1.19152 -2.28375,1.19152c-0.39717,0 -0.82744,-0.11584 -1.29081,-0.34753c-0.46337,-0.23168 -0.69505,-0.57921 -0.69505,-1.04258l-2.28375,-63.64706c0,-0.39717 0.14894,-0.92674 0.44682,-1.58869c0.29788,-0.66196 0.54611,-1.02603 0.7447,-1.09223c0.19859,0 0.47992,0.0331 0.84399,0.09929c0.36408,0.0662 0.7447,0.18204 1.14187,0.34753c0.39717,0.16549 0.7778,0.33098 1.14187,0.49647c0.36408,0.16549 0.61231,0.31443 0.7447,0.44682c0.26478,2.64782 0.43027,5.69282 0.49647,9.13499c0.0662,3.44217 0.14894,6.91744 0.24823,10.4258c0.09929,3.50837 0.26478,6.90089 0.49647,10.17757c0.23168,3.27668 0.64541,6.04035 1.24117,8.291c2.84641,-1.19152 5.52733,-2.31685 8.04276,-3.37597c2.51543,-1.05913 4.69989,-2.28375 6.55336,-3.67386c1.85348,-1.39011 3.30978,-3.09464 4.36891,-5.11361c1.05913,-2.01897 1.5556,-4.55095 1.4894,-7.59594c0,-1.65489 -0.0331,-3.11119 -0.09929,-4.36891c-0.0662,-1.25772 -0.19859,-2.49888 -0.39717,-3.7235c-0.19859,-1.22462 -0.47992,-2.54853 -0.84399,-3.97174c-0.36408,-1.42321 -0.8109,-3.06155 -1.34046,-4.91502c-0.13239,-1.19152 0.0662,-1.95277 0.59576,-2.28375c0.52956,-0.33098 1.15842,-0.49647 1.88657,-0.49647c0.86054,0 1.5225,0.19859 1.98587,0.59576c0.46337,0.39717 0.84399,0.92674 1.14187,1.58869c0.29788,0.66196 0.47992,1.37356 0.54611,2.13481c0.0662,0.76125 0.13239,1.47285 0.19859,2.13481c0.13239,1.05913 0.29788,2.64782 0.49647,4.76608c0.19859,2.11826 0.41372,4.51785 0.64541,7.19877c0.23168,2.68092 0.49647,5.51078 0.79435,8.48958c0.29788,2.9788 0.57921,5.79211 0.84399,8.43994c0.26478,2.64782 0.47992,5.03086 0.64541,7.14912c0.16549,2.11826 0.31443,3.70695 0.44682,4.76608c0.19859,2.51543 0.46337,4.99777 0.79435,7.447c0.33098,2.44924 0.49647,4.96467 0.49647,7.5463v1.58869c0,0.52956 -0.04965,1.04258 -0.14894,1.53905c-0.09929,0.49647 -0.33098,0.92674 -0.69505,1.29081c-0.36408,0.36408 -0.94329,0.64541 -1.73763,0.84399c-1.19152,-0.86054 -1.88657,-1.82038 -2.08516,-2.87951c-0.19859,-1.05913 -0.36408,-2.21755 -0.49647,-3.47527c-0.0662,-0.72815 -0.13239,-1.83693 -0.19859,-3.32633c-0.0662,-1.4894 -0.18204,-3.14429 -0.34753,-4.96467c-0.16549,-1.82038 -0.33098,-3.74005 -0.49647,-5.75902c-0.16549,-2.01897 -0.33098,-3.93864 -0.49647,-5.75902c-0.16549,-1.82038 -0.31443,-3.45872 -0.44682,-4.91502c-0.13239,-1.4563 -0.23168,-2.54853 -0.29788,-3.27668z" data-paper-data="{&quot;elementType&quot;:&quot;letter&quot;,&quot;baseline&quot;:66.40625,&quot;baselineProportion&quot;:0.9956076134699854,&quot;fontSize&quot;:100}"></path><path d="M319.69323,288.67185c-1.39011,-10.4589 -2.25065,-21.26533 -2.58163,-32.41929c-0.33098,-11.15396 -0.33098,-21.92729 0,-32.32c-0.59576,0.33098 -1.12532,0.62886 -1.58869,0.89364c-0.46337,0.26478 -1.02603,0.39717 -1.68799,0.39717c-0.46337,0 -0.89364,-0.19859 -1.29081,-0.59576c-0.39717,-0.39717 -0.59576,-0.89364 -0.59576,-1.4894v-0.29788c0,-0.0662 0.0331,-0.16549 0.09929,-0.29788c0.52956,-0.59576 1.17497,-1.62179 1.93622,-3.07809c0.76125,-1.4563 1.57215,-2.89606 2.43269,-4.31926c0.86054,-1.42321 1.68799,-2.68092 2.48233,-3.77315c0.79435,-1.09223 1.4894,-1.63834 2.08516,-1.63834c0.59576,0 1.04258,0.14894 1.34046,0.44682c0.29788,0.29788 0.54611,0.64541 0.7447,1.04258c0.19859,0.39717 0.41372,0.84399 0.64541,1.34046c0.23168,0.49647 0.57921,0.87709 1.04258,1.14187c1.98587,-1.19152 4.17032,-2.21755 6.55336,-3.07809c2.38304,-0.86054 4.78263,-1.4563 7.19877,-1.78728c2.41614,-0.33098 4.76608,-0.38062 7.04983,-0.14894c2.28375,0.23168 4.35236,0.79435 6.20584,1.68799c1.85348,0.89364 3.44217,2.16791 4.76608,3.8228c1.32391,1.65489 2.18445,3.74005 2.58163,6.25548c-0.0662,3.24358 -1.00948,6.30513 -2.82986,9.18464c-1.82038,2.87951 -4.07103,5.49423 -6.75195,7.84418c-2.68092,2.34994 -5.57698,4.4351 -8.68817,6.25548c-3.11119,1.82038 -5.97415,3.39252 -8.58888,4.71644c-2.61473,1.32391 -4.76608,2.38304 -6.45407,3.17739c-1.68799,0.79435 -2.46579,1.25772 -2.33339,1.39011v35.64632c0,0.52956 -0.23168,0.89364 -0.69505,1.09223c-0.46337,0.19859 -0.89364,0.29788 -1.29081,0.29788c-0.72815,0 -1.32391,-0.46337 -1.78728,-1.39011M323.46638,220.06013c-0.19859,1.91967 -0.44682,4.02138 -0.7447,6.30513c-0.29788,2.28375 -0.51302,4.63369 -0.64541,7.04983c-0.13239,2.41614 -0.11584,4.78263 0.04965,7.09948c0.16549,2.31685 0.61231,4.40201 1.34046,6.25548c2.84641,-1.25772 5.82521,-2.66437 8.9364,-4.21997c3.11119,-1.5556 6.08999,-3.32633 8.9364,-5.3122c2.84641,-1.98587 5.41149,-4.18687 7.69524,-6.60301c2.28375,-2.41614 3.98828,-5.11361 5.11361,-8.09241c0,-1.58869 -0.57921,-2.9457 -1.73763,-4.07103c-1.15842,-1.12532 -2.56508,-2.05206 -4.21997,-2.78021c-1.65489,-0.72815 -3.35943,-1.24117 -5.11361,-1.53905c-1.75418,-0.29788 -3.19394,-0.44682 -4.31926,-0.44682c-0.66196,0 -1.73763,0.18204 -3.22703,0.54611c-1.4894,0.36408 -3.045,0.82744 -4.66679,1.39011c-1.62179,0.56266 -3.14429,1.24117 -4.5675,2.03551c-1.42321,0.79435 -2.36649,1.58869 -2.82986,2.38304z" data-paper-data="{&quot;elementType&quot;:&quot;letter&quot;,&quot;baseline&quot;:80.07238051470588,&quot;baselineProportion&quot;:0.9987818859271997,&quot;fontSize&quot;:100}"></path><path d="M365.1696,209.33644c0.0662,0 0.29788,0.0331 0.69505,0.09929c0.39717,0.0662 0.82744,0.11584 1.29081,0.14894c0.46337,0.0331 0.91019,0.08274 1.34046,0.14894c0.43027,0.0662 0.6785,0.09929 0.7447,0.09929c0.33098,0 0.82744,0.04965 1.4894,0.14894c0.66196,0.09929 0.99293,0.47992 0.99293,1.14187v8.73782c1.12532,-0.26478 2.41614,-0.87709 3.87244,-1.83693c1.4563,-0.95984 3.17739,-1.93622 5.16326,-2.92915c1.98587,-0.99293 4.20342,-1.82038 6.65266,-2.48233c2.44924,-0.66196 5.26255,-0.82744 8.43994,-0.49647c4.89847,0.99293 8.43994,2.16791 10.62439,3.52492c2.18445,1.35701 3.34288,2.84641 3.47527,4.4682c0.13239,1.62179 -0.54611,3.35943 -2.03551,5.2129c-1.4894,1.85348 -3.45872,3.7566 -5.90796,5.70937c-2.44924,1.95277 -5.1798,3.88899 -8.1917,5.80866c-3.0119,1.91967 -5.9576,3.7897 -8.83711,5.61008c-2.87951,1.82038 -5.51078,3.52492 -7.89382,5.11361c-2.38304,1.58869 -4.17032,3.0119 -5.36184,4.26962c1.05913,0.46337 2.59818,1.20807 4.61714,2.2341c2.01897,1.02603 4.23652,2.15136 6.65266,3.37597c2.41614,1.22462 4.93157,2.53198 7.5463,3.92209c2.61473,1.39011 5.08051,2.66437 7.39736,3.8228c2.31685,1.15842 4.40201,2.18445 6.25548,3.07809c1.85348,0.89364 3.17739,1.47285 3.97174,1.73763c0.66196,0.33098 1.29081,0.62886 1.88657,0.89364c0.46337,0.33098 0.91019,0.62886 1.34046,0.89364c0.43027,0.26478 0.64541,0.52956 0.64541,0.79435c0,0.26478 -0.08274,0.62886 -0.24823,1.09223c-0.16549,0.46337 -0.41372,0.89364 -0.7447,1.29081c-0.33098,0.39717 -0.6785,0.7447 -1.04258,1.04258c-0.36408,0.29788 -0.7116,0.44682 -1.04258,0.44682c-0.13239,0 -0.28133,-0.01655 -0.44682,-0.04965c-0.16549,-0.0331 -0.28133,-0.04965 -0.34753,-0.04965c-0.13239,-0.0662 -0.57921,-0.28133 -1.34046,-0.64541c-0.76125,-0.36408 -1.5556,-0.7778 -2.38304,-1.24117c-0.82744,-0.46337 -1.62179,-0.87709 -2.38304,-1.24117c-0.76125,-0.36408 -1.24117,-0.57921 -1.43975,-0.64541c-0.72815,-0.26478 -1.90312,-0.7778 -3.52492,-1.53905c-1.62179,-0.76125 -3.44217,-1.62179 -5.46114,-2.58163c-2.01897,-0.95984 -4.15377,-2.00242 -6.40442,-3.12774c-2.25065,-1.12532 -4.38546,-2.18445 -6.40442,-3.17739c-2.01897,-0.99293 -3.83934,-1.85348 -5.46114,-2.58163c-1.62179,-0.72815 -2.79676,-1.15842 -3.52492,-1.29081v30.38377h-4.4682l-0.19859,-79.33541M371.72297,226.4149c-0.13239,1.19152 -0.26478,2.58163 -0.39717,4.17032c-0.13239,1.58869 -0.28133,3.24358 -0.44682,4.96467c-0.16549,1.72109 -0.29788,3.44217 -0.39717,5.16326c-0.09929,1.72109 -0.14894,3.30978 -0.14894,4.76608c0.26478,-0.33098 1.19152,-0.89364 2.78021,-1.68799c1.58869,-0.79435 3.50837,-1.78728 5.75902,-2.9788c2.25065,-1.19152 4.68334,-2.51543 7.29806,-3.97174c2.61473,-1.4563 5.08051,-2.96225 7.39736,-4.51785c2.31685,-1.5556 4.35236,-3.09464 6.10654,-4.61714c1.75418,-1.5225 2.87951,-2.92915 3.37597,-4.21997c0.49647,-1.29081 0.23168,-2.46579 -0.79435,-3.52492c-1.02603,-1.05913 -3.16084,-1.88657 -6.40442,-2.48233c-1.78728,-0.13239 -3.8228,-0.0331 -6.10654,0.29788c-2.28375,0.33098 -4.5675,0.89364 -6.85124,1.68799c-2.28375,0.79435 -4.41856,1.77073 -6.40442,2.92915c-1.98587,1.15842 -3.57456,2.49888 -4.76608,4.02138z" data-paper-data="{&quot;elementType&quot;:&quot;letter&quot;,&quot;baseline&quot;:79.296875,&quot;baselineProportion&quot;:1.016270337922403,&quot;fontSize&quot;:100}"></path><path d="M413.92265,268.71388c0.79435,-11.51803 2.44924,-20.90126 4.96467,-28.14967c2.51543,-7.24842 5.44459,-12.42822 8.78746,-15.53941c3.34288,-3.11119 6.81815,-4.15377 10.4258,-3.12774c3.60766,1.02603 6.86779,4.05448 9.7804,9.08534c0.99293,3.30978 1.63834,7.01673 1.93622,11.12086c0.29788,4.10413 0.23168,8.2579 -0.19859,12.46132c-0.43027,4.20342 -1.19152,8.3241 -2.28375,12.36203c-1.09223,4.03793 -2.59818,7.67869 -4.51785,10.92227c-1.91967,3.24358 -4.20342,5.97415 -6.85124,8.1917c-2.64782,2.21755 -5.69282,3.55801 -9.13499,4.02138c-2.44924,0 -4.5013,-0.76125 -6.15619,-2.28375c-1.65489,-1.5225 -2.9788,-3.39252 -3.97174,-5.61008c-0.99293,-2.21755 -1.70454,-4.5344 -2.13481,-6.95054c-0.43027,-2.41614 -0.64541,-4.58404 -0.64541,-6.50372M419.1852,268.11812c0,1.65489 0.08274,3.37597 0.24823,5.16326c0.16549,1.78728 0.54611,3.42562 1.14187,4.91502c0.59576,1.4894 1.50595,2.71402 2.73057,3.67386c1.22462,0.95984 2.86296,1.43975 4.91502,1.43975c2.31685,0 4.4351,-1.05913 6.35478,-3.17739c1.91967,-2.11826 3.57456,-4.86538 4.96467,-8.24135c1.39011,-3.37597 2.49888,-7.11603 3.32633,-11.22015c0.82744,-4.10413 1.32391,-8.12551 1.4894,-12.06415c0.16549,-3.93864 -0.0331,-7.56285 -0.59576,-10.87263c-0.56266,-3.30978 -1.53905,-5.80866 -2.92915,-7.49665c-1.39011,-1.68799 -3.22703,-2.36649 -5.51078,-2.03551c-2.28375,0.33098 -5.01432,2.15136 -8.1917,5.46114c-0.92674,2.71402 -1.85348,5.51078 -2.78021,8.39029c-0.92674,2.87951 -1.75418,5.79211 -2.48233,8.73782c-0.72815,2.9457 -1.35701,5.87486 -1.88657,8.78746c-0.52956,2.91261 -0.79435,5.75902 -0.79435,8.53923z" data-paper-data="{&quot;elementType&quot;:&quot;letter&quot;,&quot;baseline&quot;:67.31875,&quot;baselineProportion&quot;:0.9985514468149213,&quot;fontSize&quot;:100}"></path></g></g></g></g></g></svg>